<?xml version="1.0" encoding="UTF-8" standalone="no"?>
<svg
   height="1600"
   viewBox="0 0 5780 1599.9999"
   width="5780"
   version="1.1"
   id="svg12"
   sodipodi:docname="blender_logo_large.svg"
   inkscape:version="1.3.2 (091e20e, 2023-11-25, custom)"
   xml:space="preserve"
   xmlns:inkscape="http://www.inkscape.org/namespaces/inkscape"
   xmlns:sodipodi="http://sodipodi.sourceforge.net/DTD/sodipodi-0.dtd"
   xmlns="http://www.w3.org/2000/svg"
   xmlns:svg="http://www.w3.org/2000/svg"><defs
     id="defs12" /><sodipodi:namedview
     pagecolor="#303030"
     showgrid="true"
     id="namedview1"
     bordercolor="#000000"
     borderopacity="0.25"
     inkscape:showpageshadow="2"
     inkscape:pageopacity="0.0"
     inkscape:pagecheckerboard="0"
     inkscape:deskcolor="#d1d1d1"
     inkscape:zoom="0.14533613"
     inkscape:cx="3140.9946"
     inkscape:cy="994.24692"
     inkscape:window-width="1920"
     inkscape:window-height="1008"
     inkscape:window-x="-8"
     inkscape:window-y="-8"
     inkscape:window-maximized="1"
     inkscape:current-layer="svg12"><inkscape:grid
       id="grid5"
       units="px"
       spacingx="100"
       spacingy="100"
       color="#4772b3"
       opacity="0.2"
       visible="true"
       originx="0"
       originy="0" /></sodipodi:namedview><g
     clip-rule="evenodd"
     enable-background="new"
     stroke-linejoin="round"
     stroke-miterlimit="2"
     transform="matrix(100 0 0 100 -2876.575 -43092.903)"
     id="g12"
     style="fill:none"><path
       d="m30.583145 445.29776h56.316948v15.124175h-56.316948z"
       fill="none"
       stroke-width=".025131"
       id="path1"
       style="fill:none" /><g
       fill="#f9f9f9"
       fill-rule="evenodd"
       transform="matrix(.11457722 0 0 .11457713 24.184109 480.62277)"
       id="g11"
       style="fill:none"><g
         fill-rule="nonzero"
         id="g10"
         style="fill:none"><path
           d="m243.13-333.715c.106-1.891 1.032-3.557 2.429-4.738 1.37-1.16 3.214-1.869 5.226-1.869 2.01 0 3.854.709 5.225 1.869 1.396 1.181 2.322 2.847 2.429 4.736.106 1.943-.675 3.748-2.045 5.086-1.397 1.361-3.384 2.215-5.609 2.215s-4.216-.854-5.612-2.215c-1.371-1.338-2.15-3.143-2.043-5.084z"
           transform="matrix(2.66418 0 0 2.66418 -520.324 532.513)"
           id="path2"
           style="fill:none" /><path
           d="m230.94-329.894c.013.74.249 2.178.603 3.301.744 2.377 2.006 4.576 3.762 6.514 1.802 1.992 4.021 3.592 6.584 4.728 2.694 1.193 5.613 1.801 8.645 1.796 3.027-.004 5.946-.624 8.64-1.826 2.563-1.147 4.78-2.754 6.579-4.747 1.755-1.946 3.015-4.149 3.761-6.526.375-1.201.612-2.42.707-3.643.093-1.205.054-2.412-.117-3.618-.334-2.35-1.147-4.555-2.399-6.565-1.145-1.847-2.621-3.464-4.376-4.825l.004-.003-17.711-13.599c-.016-.012-.029-.025-.046-.036-1.162-.892-3.116-.889-4.394.005-1.292.904-1.44 2.399-.29 3.342l-.005.005 7.387 6.007-22.515.024h-.03c-1.861.002-3.65 1.223-4.004 2.766-.364 1.572.9 2.876 2.835 2.883l-.003.007 11.412-.022-20.364 15.631c-.026.019-.054.039-.078.058-1.921 1.471-2.542 3.917-1.332 5.465 1.228 1.574 3.839 1.577 5.78.009l11.114-9.096s-.162 1.228-.149 1.965zm28.559 4.112c-2.29 2.333-5.496 3.656-8.965 3.663-3.474.006-6.68-1.305-8.97-3.634-1.119-1.135-1.941-2.441-2.448-3.832-.497-1.367-.69-2.818-.562-4.282.121-1.431.547-2.796 1.227-4.031.668-1.214 1.588-2.311 2.724-3.239 2.226-1.814 5.06-2.796 8.024-2.8 2.967-.004 5.799.969 8.027 2.777 1.134.924 2.053 2.017 2.721 3.229.683 1.234 1.106 2.594 1.232 4.029.126 1.462-.067 2.911-.564 4.279-.508 1.395-1.327 2.701-2.446 3.841z"
           transform="matrix(2.66418 0 0 2.66418 -520.324 532.513)"
           id="path3"
           style="fill:none" /><path
           d="m364.467-333.746c.171-1.908 1.646-3.118 3.899-3.118 2.256 0 3.73 1.21 3.901 3.118zm7.569 4.711c-.577 1.414-1.937 2.251-3.784 2.251-2.313 0-3.87-1.444-3.933-3.725h13.297v-.671c0-5.714-3.354-8.925-9.364-8.925-5.836 0-9.365 3.241-9.365 8.324 0 5.114 3.584 8.35 9.365 8.35 3.469 0 6.159-1.189 7.817-3.279z"
           transform="matrix(2.66418 0 0 2.66418 -520.324 532.513)"
           id="path4"
           style="fill:none" /><path
           d="m305.468-333.737c.176-1.908 1.651-3.118 3.906-3.118 2.252 0 3.726 1.21 3.899 3.118zm7.574 4.711c-.578 1.418-1.937 2.255-3.788 2.255-2.309 0-3.87-1.448-3.931-3.73h13.294v-.667c0-5.717-3.353-8.929-9.363-8.929-5.839 0-9.361 3.242-9.361 8.325 0 5.114 3.582 8.35 9.361 8.35 3.468 0 6.16-1.185 7.821-3.278z"
           transform="matrix(2.66418 0 0 2.66418 -520.324 532.513)"
           id="path5"
           style="fill:none" /><path
           d="m262.6971779018-382.7926808h12.7747431v52.26322172418h-12.7747431z"
           stroke-width="2.66418"
           id="path6"
           style="fill:none" /><path
           d="m319.81-338.348h4.822v1.168c1.707-1.822 3.757-2.743 6.069-2.743 2.663 0 4.679.921 5.72 2.489.869 1.295.926 2.858.926 4.912v8.579h-4.829v-7.538c0-3.128-.629-4.572-3.375-4.572-2.775 0-4.511 1.653-4.511 4.428v7.682h-4.822z"
           transform="matrix(2.66418 0 0 2.66418 -520.324 532.513)"
           id="path7"
           style="fill:none" /><path
           d="m352.876-331.538c0 2.685-1.794 4.446-4.57 4.446-2.778 0-4.572-1.701-4.572-4.415 0-2.754 1.77-4.454 4.572-4.454 2.776 0 4.57 1.73 4.57 4.423zm0-6.157c-1.219-1.307-2.983-2.024-5.435-2.024-5.29 0-8.902 3.262-8.902 8.151 0 4.793 3.587 8.146 8.815 8.146 2.397 0 4.157-.606 5.522-1.965v1.444h4.825v-20.861l-4.825 1.244z"
           transform="matrix(2.66418 0 0 2.66418 -520.324 532.513)"
           id="path8"
           style="fill:none" /><path
           d="m282.947-335.961c2.804 0 4.567 1.7 4.567 4.454 0 2.714-1.791 4.415-4.567 4.415-2.774 0-4.566-1.761-4.566-4.446 0-2.693 1.792-4.423 4.566-4.423zm-4.566-7.599-4.827-1.244v20.861h4.827v-1.444c1.358 1.359 3.121 1.965 5.52 1.965 5.231 0 8.813-3.353 8.813-8.146 0-4.889-3.613-8.151-8.9-8.151-2.457 0-4.22.717-5.433 2.024z"
           transform="matrix(2.66418 0 0 2.66418 -520.324 532.513)"
           id="path9"
           style="fill:none" /><path
           d="m378.806-323.943v-14.405h4.825v.89c1.445-1.74 2.974-2.606 4.713-2.606.345 0 .779.056 1.356.113v4.107c-.465-.061-.983-.061-1.533-.061-2.805 0-4.536 1.85-4.536 4.996v6.966z"
           transform="matrix(2.66418 0 0 2.66418 -520.324 532.513)"
           id="path10"
           style="fill:none" /></g><path
         d="m 2258.6147,768.86279 q 0,8.74024 -6.2011,14.94141 -6.1768,6.17676 -14.917,6.17676 -8.7403,0 -14.9414,-6.17676 -6.1768,-6.20117 -6.1768,-14.94141 0,-8.74023 6.1768,-14.91699 6.2011,-6.20117 14.9414,-6.20117 8.7402,0 14.917,6.20117 6.2011,6.17676 6.2011,14.91699 z m -4.6386,0 q 0,-6.81152 -4.834,-11.69433 -4.8096,-4.90723 -11.6211,-4.90723 -6.8115,0 -11.6455,4.90723 -4.8096,4.88281 -4.8096,11.69433 0,6.81153 4.8096,11.71875 4.834,4.88282 11.6455,4.88282 6.8115,0 11.6211,-4.88282 4.834,-4.90722 4.834,-11.71875 z m -4.6143,10.00977 h -6.6162 l -6.3721,-7.71485 h -2.0996 v 7.71485 h -5.1758 v -21.02051 h 7.9834 q 2.2217,0 3.5645,0.1709 1.3428,0.1709 2.6611,0.87891 1.4405,0.80566 2.0996,1.95312 0.6836,1.14746 0.6836,2.85645 0,2.29492 -1.2939,3.78418 -1.294,1.48925 -3.3692,2.31933 z m -9.0332,-14.77051 q 0,-0.65918 -0.293,-1.19629 -0.2685,-0.56152 -0.9277,-0.90332 -0.6103,-0.3418 -1.416,-0.41504 -0.7813,-0.0977 -1.7822,-0.0977 h -1.6358 v 5.93261 h 1.2451 q 1.294,0 2.2217,-0.1709 0.9278,-0.19531 1.4893,-0.63476 0.5615,-0.41504 0.8301,-1.02539 0.2685,-0.61035 0.2685,-1.48926 z"
         id="text10"
         style="font-weight:600;font-size:50px;font-family:OpenSans-Semibold, 'Open Sans', sans-serif;fill:none"
         transform="matrix(.271988 0 0 .271988 -78.0964 -584.901)"
         aria-label="®" /></g></g><path
     style="fill:#000000"
     d="m 57.694181,780.94831 v -928.9782 H 2900.1734 5742.6527 v 928.9782 928.97819 H 2900.1734 57.694181 Z M 1208.8335,1494.0795 c 155.7881,-42.633 278.5541,-137.9368 345.262,-268.0285 57.2721,-111.6903 61.4959,-154.6756 61.4959,-625.83309 V 94.312207 h -163.9891 -163.9892 v 97.541303 c 0,84.4895 -5.594,92.9673 -41.8067,63.3584 -31.9671,-26.1376 -57.6981,-27.0494 -109.3261,-3.8744 -53.1983,23.8799 -67.5195,50.4206 -67.5195,125.13 0,92.3646 -2.7782,94.8214 -107.22912,94.8214 -75.484,0 -132.1243,20.6378 -191.3207,69.7109 l -84.0916,69.7109 V 352.51151 94.312207 H 522.33018 358.34098 V 523.81731 c 0,524.99319 28.1599,672.36819 154.8775,810.55289 149.8011,163.3572 439.3557,229.8373 695.61502,159.7093 z m -129.0604,-251.389 C 803.15758,1136.8356 731.17218,1089.5812 687.19638,984.98591 c -40.9205,-97.3284 -57.5395,-101.2209 -123.8689,-29.0128 -60.0388,65.35999 -104.217,68.19589 -153.3715,9.8451 -32.5519,-38.642 -18.795,-60.0065 112.8124,-175.1971 257.2419,-225.1536 343.8079,-274.454 481.91002,-274.454 h 124.6193 l -14.5097,-88.0889 c -9.5282,-57.8463 -1.2382,-98.9401 24.1466,-119.6957 75.8033,-61.9798 113.0551,-5.9062 158.4406,238.494 57.2984,308.5512 56.4743,348.2302 -9.7621,469.98329 -64.3182,118.2272 -65.7689,127.6017 -19.7472,127.6017 19.2037,0 62.2941,18.8926 95.7565,41.9835 49.1133,33.8911 55.3685,52.0571 32.4513,94.2442 -35.8742,66.0392 -48.3496,64.5405 -316.3006,-37.9987 z m 17.4806,-219.8899 c 208.4496,-106.19759 76.9103,-430.50619 -151.68652,-373.98139 -192.4503,47.5869 -201.8301,327.4506 -13.264,395.75869 64.9538,23.5295 79.89122,21.5574 164.95052,-21.7773 z m 1323.5332,79.9729 c 122.5407,-57.2885 151.4081,-136.85769 151.4081,-417.33639 0,-236.5309 -1.2367,-241.0751 -65.6094,-241.0751 -63.7404,0 -65.8815,6.9657 -75.1617,244.529 -7.9819,204.3292 -18.2742,250.8094 -62.6063,282.7324 -73.5337,52.95059 -142.2473,47.74529 -206.5955,-15.6503 -46.0885,-45.4061 -54.6631,-89.7563 -54.6631,-282.7324 0,-226.186 -0.8039,-228.8787 -68.3288,-228.8787 -67.7961,0 -68.3289,1.8796 -68.3289,241.0751 0,277.3616 33.4491,371.55209 149.661,421.43599 110.1884,47.2982 192.6939,46.1716 300.2246,-4.0996 z m 2228.0514,-1.6261 c 109.2613,-43.0705 109.8792,-44.1305 109.8792,-188.48829 0,-136.9013 -3.8938,-145.1743 -68.3288,-145.1743 -61.3008,0 -68.3288,10.8918 -68.3288,105.8931 0,120.1525 -51.6361,153.21129 -191.901,122.86 -156.1611,-33.7909 -221.5402,-252.2631 -108.7459,-363.3876 60.9459,-60.0436 214.6604,-72.2642 305.6323,-24.2983 44.2159,23.3133 65.4834,20.1029 100.6964,-15.2005 41.355,-41.4611 39.8912,-48.5931 -19.8822,-96.8728 -92.182,-74.4565 -323.6891,-78.7487 -435.5815,-8.0758 -86.1731,54.4282 -169.2918,195.9608 -169.4151,288.476 -0.1642,123.3364 80.3719,257.68389 188.0925,313.76899 122.306,63.679 216.0037,66.4279 357.8829,10.4995 z m -1775.9964,-77.857 c 0,-93.89789 0.4568,-94.24419 124.3491,-94.24419 137.0301,0 269.673,-54.8437 295.9775,-122.3774 27.617,-70.9032 17.7749,-210.9553 -18.0558,-256.9326 -60.7688,-77.9775 -150.6779,-105.3742 -345.8109,-105.3742 h -193.1176 v 336.5863 336.58629 h 68.3288 c 59.8691,0 68.3289,-11.6684 68.3289,-94.2442 z m 0,-336.58629 v -107.7076 h 122.0302 c 94.0577,0 128.7363,12.3448 151.2851,53.8538 52.0511,95.8185 -9.5102,161.5615 -151.2851,161.5615 h -122.0302 z m 1108.1693,364.73719 c 80.3703,-79.18049 85.0201,-148.46359 15.6299,-232.88819 -45.4331,-55.2768 -46.9478,-69.3849 -12.9396,-120.5195 51.492,-77.4234 7.6289,-191.7013 -87.2163,-227.2276 -38.8291,-14.5442 -162.0415,-26.444 -273.8055,-26.444 h -203.2072 v 336.5863 336.58629 h 247.2261 c 226.045,0 252.9738,-5.6626 314.3126,-66.0933 z m -424.881,-123.73879 v -82.1245 l 156.8906,8.0755 c 128.1534,6.5963 158.6835,17.3487 166.6785,58.7027 13.4287,69.4605 -40.6909,96.57229 -193.7444,97.05839 -126.5922,0.4021 -129.8247,-1.6325 -129.8247,-81.71209 z m 0,-298.3541 c 0,-84.1993 0.1238,-84.2689 125.3687,-70.3609 140.1336,15.5612 190.5431,49.6867 166.0993,112.4432 -11.9104,30.5785 -54.3084,42.2003 -153.9526,42.2003 -135.8436,0 -137.5154,-1.0246 -137.5154,-84.2826 z m 1885.8756,434.33239 c 0,-48.7249 -18.221,-53.8539 -191.3207,-53.8539 h -191.3207 v -80.78069 c 0,-79.9647 1.5184,-80.7807 150.3234,-80.7807 142.124,0 150.3234,-3.6718 150.3234,-67.3172 0,-63.6454 -8.1994,-67.3173 -150.3234,-67.3173 -142.124,0 -150.3234,-3.6718 -150.3234,-67.3172 0,-64.9008 6.3773,-67.3173 177.6549,-67.3173 171.2776,0 177.655,-2.4165 177.655,-67.3172 0,-67.0811 -0.9111,-67.3173 -259.6496,-67.3173 h -259.6495 v 336.5863 336.58629 h 273.3153 c 255.0943,0 273.3153,-3.5903 273.3153,-53.8538 z"
     id="path11" /></svg>
