<?xml version="1.0" encoding="UTF-8" standalone="no"?>
<svg
   height="1600"
   viewBox="0 0 1700 1600"
   width="1700"
   version="1.1"
   id="svg3"
   sodipodi:docname="blender.svg"
   inkscape:version="1.3.2 (091e20e, 2023-11-25, custom)"
   xmlns:inkscape="http://www.inkscape.org/namespaces/inkscape"
   xmlns:sodipodi="http://sodipodi.sourceforge.net/DTD/sodipodi-0.dtd"
   xmlns="http://www.w3.org/2000/svg"
   xmlns:svg="http://www.w3.org/2000/svg">
  <defs
     id="defs3">
    <pattern
       id="EMFhbasepattern"
       patternUnits="userSpaceOnUse"
       width="6"
       height="6"
       x="0"
       y="0" />
  </defs>
  <sodipodi:namedview
     pagecolor="#303030"
     showgrid="true"
     id="namedview1"
     bordercolor="#000000"
     borderopacity="0.25"
     inkscape:showpageshadow="2"
     inkscape:pageopacity="0.0"
     inkscape:pagecheckerboard="0"
     inkscape:deskcolor="#d1d1d1"
     inkscape:zoom="0.505625"
     inkscape:cx="850.43263"
     inkscape:cy="800"
     inkscape:window-width="1920"
     inkscape:window-height="1008"
     inkscape:window-x="-8"
     inkscape:window-y="-8"
     inkscape:window-maximized="1"
     inkscape:current-layer="svg3">
    <inkscape:grid
       id="grid5"
       units="px"
       spacingx="100"
       spacingy="100"
       color="#4772b3"
       opacity="0.2"
       visible="true"
       originx="0"
       originy="0" />
  </sodipodi:namedview>
  <g
     fill="#fff"
     id="g3"
     style="fill:none">
    <g
       enable-background="new"
       opacity=".99"
       stroke-width="1.07692"
       transform="matrix(92.8571 0 0 92.8571 -29608.14600000001 -57470.909)"
       id="g2"
       style="fill:none">
      <path
         d="m327.94922 619.99609c-.89539.0396-1.29072 1.14622-.62305 1.74414l1.37305 1.26563h-6.69727c-1.36099-.0279-1.36099 2.02794 0 2h3.0918c-.003.002-.005.004-.008.006l-4.75 4.24805c-.99479.88933.33919 2.38151 1.33398 1.49218l2.33985-2.09375c.0823 2.95524 2.51793 5.34766 5.49218 5.34766 3.02565 0 5.49805-2.47428 5.49805-5.5 0-1.56564-.6642-2.98065-1.72266-3.98438l-4.59961-4.25195c-.19597-.18575-.45872-.28437-.72851-.27344zm1.55273 5.00977c1.94471 0 3.5 1.5551 3.5 3.5 0 1.94489-1.55529 3.5-3.5 3.5-1.94472 0-3.5-1.55511-3.5-3.5 0-1.9449 1.55528-3.5 3.5-3.5zm-.0176 1.78516a1.7319623 1.7139345 0 0 0 -1.73243 1.71484 1.7319623 1.7139345 0 0 0 1.73243 1.71289 1.7319623 1.7139345 0 0 0 1.73242-1.71289 1.7319623 1.7139345 0 0 0 -1.73242-1.71484z"
         fill="#fff"
         opacity="1"
         transform="matrix(1.07692 0 0 1.07692 -24.694 -47.6977)"
         id="path1"
         style="fill:none" />
      <path
         d="m318.84433-637.22546h19.384615v19.384617h-19.384615z"
         fill="none"
         stroke-width="1.75216"
         transform="scale(1 -1)"
         id="path2"
         style="fill:none" />
    </g>
  </g>
  <path
     style="fill:#ffffff;stroke-width:1.12714;fill-opacity:1"
     d="M 619.04056,1482.337 C 444.28575,1438.4916 307.56622,1341.3491 236.34588,1210.423 182.68315,1111.7736 177.69635,1059.9997 177.69635,601.51315 V 100.42004 H 386.923 596.14966 v 246.794 c 0,137.74988 -12.32604,253.57331 -27.89689,262.13726 -17.85477,9.82011 -27.89688,-70.08229 -27.89688,-221.96808 V 150.07187 H 372.97456 205.59324 v 395.99268 c 0,483.62655 28.78223,619.94555 157.70852,746.94185 276.90544,272.7607 883.70654,215.9503 1062.78034,-99.5003 58.4567,-102.9757 62.7679,-142.607 62.7679,-577.00221 V 150.07187 h -165.6973 -165.6972 l -10.9431,93.09719 c -10.0254,85.29315 -11.3359,83.21207 -15.6323,-24.82592 l -4.6896,-117.9231 h 209.2267 209.2266 v 468.57111 c 0,514.84645 -23.7379,626.11655 -161.4907,756.98075 -159.1754,151.2153 -503.66556,221.7104 -764.11254,156.3651 z M 941.94824,1208.8471 C 659.61086,1111.2517 586.13648,1067.6844 541.25098,971.25015 499.48402,881.51593 482.52132,877.92713 414.81989,944.50115 353.53919,1004.7614 308.44713,1007.376 258.27587,953.57808 225.05058,917.95112 239.09213,898.25355 373.42183,792.05074 635.98479,584.46498 724.34143,539.0112 865.30013,539.0112 H 992.4973 l -14.80986,-81.21566 c -9.72525,-53.33281 -1.26381,-91.22022 24.64606,-110.35638 77.3713,-57.14378 115.3936,-5.44537 161.718,219.88537 58.4836,284.4763 57.6424,321.05928 -9.9641,433.31257 -65.6486,109.0025 -67.1293,117.6455 -20.1557,117.6455 19.6011,0 63.5828,17.4185 97.7372,38.7076 50.1293,31.2468 56.5139,47.9954 33.1227,86.8908 -36.6162,60.8865 -49.3498,59.5047 -322.84336,-35.0339 z m 17.84211,-202.7327 C 1172.5518,908.20288 1038.2916,609.19868 804.96622,661.31307 608.53504,705.18694 598.9613,963.21413 791.42787,1026.1924 c 66.2974,21.6937 81.5438,19.8755 168.36248,-20.078 z"
     id="path3" />
</svg>
